<?xml version="1.0" encoding="UTF-8"?>
<svg id="Layer_1" data-name="Layer 1" xmlns="http://www.w3.org/2000/svg" viewBox="0 0 256 256">
  <path d="m56.81,105.89c-1.81,0-3.62,0-5.44,0-.56,0-1.12.1-1.67.11-1.8.03-3.18-1.37-3.2-3.24-.02-1.61,1.54-3.17,3.22-3.08,4.11.22,8.22,0,12.33.12.88.03,1.39-.31,1.79-1.03,1-1.79,2.02-3.57,3.06-5.35.3-.52.32-.99,0-1.52-1.27-2.18-2.52-4.36-3.77-6.55-.28-.49-.54-.98-.82-1.47-.2-.36-.51-.51-.92-.51-3.08,0-6.17.01-9.25,0-.61,0-.95.31-1.23.8-1.5,2.64-3.02,5.28-4.53,7.92-.16.27-.33.54-.5.81-.26.44-.66.65-1.16.65-3.68,0-7.36,0-11.04-.01-.58,0-1.02-.2-1.32-.75-1.59-2.85-3.22-5.68-4.82-8.53-.34-.6-.75-.92-1.46-.91-2.48.03-4.97.03-7.45.03-.47,0-.75.27-1.02.6-.27.33-.48.71-.83.98-1.2.93-2.9.84-4.01-.2-1.19-1.11-1.38-2.7-.52-4.01.76-1.16,1.77-1.71,3.18-1.41.49.1,1.01-.06,1.44.36.16.16.32.25.38.49.19.8.69,1.2,1.52,1.21,1.51.02,3.03.01,4.54.03.91.01,1.83.05,2.74.07.63.01,1.09-.23,1.42-.81,1.61-2.86,3.25-5.71,4.86-8.57.29-.52.64-.79,1.27-.81,3.79-.11,7.58-.02,11.37,0,.62,0,.89.39,1.14.84,1.03,1.84,2.06,3.68,3.1,5.52.61,1.07,1.33,2.07,1.83,3.21.17.39.51.51.91.54.88.06,1.75.1,2.63.1,2.62-.01,5.23,0,7.85-.01.54,0,.84.19,1.11.65,1.65,2.88,3.35,5.74,5,8.62.33.58.74.85,1.43.84,2.11-.03,4.22-.02,6.33,0,.49,0,.84-.16,1.13-.57.67-.95,1.55-1.55,2.76-1.56.47,0,.83-.25,1.04-.65.67-1.27,1.44-2.49,2.19-3.71.29-.48.22-.91-.04-1.37-1.46-2.52-2.92-5.03-4.38-7.56-.47-.81-.97-1.59-1.53-2.34-1.12-1.52-.74-3.41.87-4.54,1.39-.98,3.35-.59,4.3.95.67,1.09,1.13,2.3,1.79,3.41,1.43,2.39,2.89,4.75,4.19,7.21.23.44.64.51,1.05.51.67.01,1.34-.06,2.01-.06,1.49.02,2.99.04,4.48.1.71.03,1.2-.19,1.56-.83,1.27-2.24,2.58-4.46,3.88-6.68.23-.38.12-.7-.07-1.04-.93-1.69-.16-3.23.76-4.12.96-.93,3.17-.95,4.22.08,1.21,1.19,1.45,2.92.51,4.27-.73,1.05-1.77,1.45-2.98,1.48-.47.01-.77.18-.99.58-1.25,2.21-2.5,4.42-3.77,6.61-.29.49-.11.89.13,1.3,1.15,1.98,2.31,3.97,3.46,5.95.35.6.71,1.19,1.05,1.79.26.45.63.66,1.15.65,2.3,0,4.6,0,6.89,0,.39,0,.65-.15.87-.49.82-1.3,2.07-1.87,3.42-1.59,1.32.27,2.42,1.45,2.65,2.87.13.77-.15,1.44-.52,2.07-.2.35-.18.62,0,.98.65,1.22,1.4,2.38,2.08,3.58.22.38.48.57.94.53,1.3-.1,2.22.57,2.9,1.57.33.48.7.67,1.25.66,2.11-.03,4.21-.06,6.32-.08.43,0,.86.06,1.29.06.62,0,1.02.3,1.3.81,1.63,2.94,3.46,5.76,5,8.74.23.44.55.66,1.07.66,3.06-.01,6.13,0,9.19,0,.52,0,.87-.18,1.13-.65,1.03-1.82,2.09-3.62,3.16-5.42.27-.45.29-.84,0-1.3-.73-1.19-.83-2.41-.02-3.62.08-.12.17-.26.29-.34.67-.44.63-1.03.41-1.68-.79-2.33-1.57-4.67-2.36-7-.17-.51-.09-.89.36-1.22,2.35-1.72,4.7-3.45,7.05-5.17.8-.58,1.64-1.12,2.4-1.74.52-.42.96-.37,1.46-.02,1.37.97,2.73,1.96,4.13,2.89,1.79,1.19,3.43,2.59,5.23,3.76.79.51.81.58.54,1.47-.74,2.37-1.48,4.73-2.28,7.08-.36,1.06-.63,2.15-.96,3.22-.1.34-.02.66.15.96,1.55,2.66,3.1,5.32,4.63,7.99.25.44.59.66,1.07.67,2.24.04,4.48.08,6.72.12.32,0,.53-.14.67-.42.7-1.38,1.8-2.04,3.36-1.92.38.03.64-.14.8-.48.96-1.96,2.21-3.76,3.27-5.67.28-.51.33-.91.02-1.44-1.69-2.86-3.33-5.75-5.02-8.61-.37-.63-.38-1.15-.01-1.76,1.27-2.13,2.52-4.28,3.77-6.42.47-.8.94-1.61,1.42-2.41.34-.56.09-1.04-.19-1.52-.76-1.31-1.54-2.6-2.29-3.91-.43-.74-.85-1.49-1.23-2.26-.26-.53-.6-.77-1.22-.76-1.5.03-2.6-.75-3.16-2.14-.46-1.16-.12-2.59.85-3.55,1.2-1.18,2.86-1.24,4.4-.15,1.1.77,1.54,2.62.82,3.89-.39.7-.31,1.21.08,1.85,1.26,2.07,2.53,4.14,3.68,6.28.23.42.53.65,1.03.62,1.95-.14,3.92.05,5.87-.11.64-.05,1.27.04,1.9.1.46.05.74-.12.97-.55.76-1.41,2.23-1.98,3.89-1.55,1.38.35,2.42,1.75,2.42,3.27,0,1.57-.97,2.91-2.45,3.28-1.21.3-2.84.11-3.75-1.52-.35-.62-.79-.76-1.45-.75-2.47.03-4.93.03-7.4,0-.54,0-.86.19-1.11.65-1.46,2.69-2.96,5.35-4.56,7.97-.29.47-.07.86.15,1.25,1.11,1.92,2.24,3.84,3.35,5.76.39.68.76,1.37,1.13,2.06.17.32.4.49.78.54,1.34.18,2.69.07,4.03.09,1.76.03,3.51,0,5.27.03.6,0,.99-.19,1.3-.74.91-1.61,1.86-3.19,2.84-4.76.49-.78.67-1.46.22-2.38-.73-1.5.05-3.44,1.56-4.24,1.43-.76,3.38-.25,4.3,1.16.27.4.57.62,1.08.66.81.07,1.6,0,2.4,0,1.4,0,2.8.03,4.2.08.44.02.74-.12.97-.5,1.18-1.99,2.37-3.98,3.56-5.96.25-.41.23-.77-.01-1.2-1.7-2.94-3.38-5.89-5.08-8.83-.26-.45-.62-.84-.92-1.27-.77-1.11-.86-2.27-.26-3.49.7-1.43,1.89-1.97,3.4-1.82,1.34.14,2.24.93,2.66,2.18.32.96.85,1.78,1.34,2.64,1.39,2.45,2.78,4.9,4.16,7.36.21.37.47.62.91.64.11,0,.22.04.33.04,1.68-.01,3.36,0,5.04-.06,1-.03,1.42-.51,1.54-1.54.07-.63.07-.63.65-.33.12.06.24.1.37.06.11-.03.22-.06.32-.1,2.36-.95,3.29-.15,4.25,1.95.75,1.66-.51,3.74-2.34,4.25-1.31.37-2.69-.05-3.41-1.19-.49-.77-1.02-.95-1.92-.9-2.1.12-4.22.08-6.33.04-.99-.02-1.61.32-2.1,1.21-1.28,2.32-2.66,4.58-4,6.87-.28.48-.56.97-.82,1.46-.25.49-.62.68-1.17.67-1.49-.03-2.99,0-4.48-.01-1.06,0-2.13.09-3.19,0-.51-.04-.87.15-1.06.64-.53,1.34-1.67,1.75-2.96,1.81-.58.03-.92.2-1.2.71-.59,1.1-1.21,2.19-1.86,3.26-.3.49-.28.92,0,1.4,1.41,2.4,2.81,4.8,4.19,7.21.63,1.1,1.33,2.16,2.06,3.19.81,1.14.67,2.32,0,3.47-.69,1.19-1.77,1.66-3.11,1.58-1.3-.07-2.14-.78-2.64-1.94-.93-2.15-2.24-4.09-3.35-6.14-.75-1.4-1.66-2.71-2.35-4.14-.34-.7-.89-1.01-1.67-.98-2.18.08-4.37.12-6.55.09-.46,0-.79.19-1,.59-1.02,2-2.27,3.86-3.33,5.83-.2.36-.23.69-.06,1.06.22.48.41.96.45,1.49.11,1.51-.85,2.82-2.45,3.34-1.34.44-2.81-.12-3.56-1.4-.3-.52-.71-.73-1.29-.72-1.27.01-2.54.02-3.81.02-.65,0-1.14.24-1.46.84-1.4,2.72-3.01,5.33-4.57,7.96-.37.63-.66,1.29-.91,1.98-.53,1.46-1.85,2.28-3.46,2.2-1.26-.06-2.53-1.12-2.9-2.45-.27-.97-.1-1.9.5-2.71,1.35-1.82,2.35-3.85,3.52-5.78.91-1.5,1.75-3.04,2.65-4.54.21-.36.18-.64-.01-.98-1.17-2.02-2.33-4.04-3.48-6.07-.29-.52-.73-.76-1.29-.72-2.02.12-4.03.08-6.05.07-.76,0-1.3.13-1.75.87-.55.91-1.47,1.43-2.58,1.46-.51.02-.84.22-1.07.66-.61,1.2-1.26,2.37-1.99,3.5-.27.42-.28.81-.02,1.25,1.7,2.9,3.38,5.8,5.08,8.7.3.51.7.97,1.04,1.46,1.34,1.93.6,4.44-1.63,5.17-1.51.49-3.27,0-4.02-1.67-1.65-3.69-3.9-7.05-5.89-10.54-.22-.39-.53-.56-.95-.56-2.35,0-4.71,0-7.06-.02-.43,0-.72.16-.95.55-1.11,1.95-2.24,3.88-3.37,5.81-.24.41-.19.74.04,1.14,1.21,2.08.27,4.47-1.95,5.01-1.44.35-2.92-.25-3.66-1.52-.3-.52-.71-.78-1.32-.78-2.11,0-4.22,0-6.33-.02-.51,0-.85.21-1.12.61-.94,1.39-1.67,2.91-2.56,4.34-.71,1.14-1.33,2.34-2,3.5-.3.51-.29.97,0,1.47,1.51,2.55,3.01,5.11,4.51,7.67.26.45.6.67,1.13.67,1.53,0,3.06.15,4.59,0,.67-.07,1.34.01,2.01.07.66.06,1.09-.2,1.42-.77,1.32-2.32,2.67-4.62,3.99-6.94.75-1.31,1.56-2.57,2.05-4.03.38-1.14,1.81-1.88,3.09-1.81,1.23.06,2.53,1.02,2.94,2.19.35.98.44,2-.24,2.83-1.21,1.47-2.02,3.18-2.98,4.79-1.19,1.99-2.32,4-3.51,5.99-.32.54-.38,1-.05,1.56.8,1.35,1.56,2.72,2.34,4.08.34.58.76.97,1.54,1.01,1.48.08,2.78,1.41,2.98,2.84.19,1.42-.79,3.08-2.2,3.54-1.17.38-2.57.2-3.55-.88-.88-.96-1.16-2.34-.54-3.48.42-.77.38-1.4-.06-2.13-1.18-1.97-2.32-3.96-3.46-5.95-.37-.65-1.01-.77-1.65-.74-1.34.08-2.68.1-4.03.08-1.55-.02-3.1,0-4.65,0-.21,0-.41,0-.62,0-.92.03-1.54-.31-2.01-1.17-1.47-2.7-3.05-5.35-4.55-8.04-.43-.77-.94-1.12-1.87-1.09-1.85.08-3.7.04-5.55.02-.84-.01-1.47.22-1.88,1.01-.54,1.03-1.48,1.44-2.61,1.43-.58,0-.94.21-1.21.71-.63,1.15-1.28,2.28-1.94,3.41-.23.4-.23.74.02,1.14,1.77,2.92,3.5,5.86,5.16,8.85.33.6.79,1.13,1.17,1.7.97,1.47.58,3.49-.91,4.44-1.33.84-3.24,1-4.47-.74-.17-.24-.34-.5-.46-.77-1.53-3.5-3.71-6.64-5.59-9.95-.44-.77-1.03-1.11-1.96-1.07-2.03.07-4.07.03-6.11.02-.54,0-.94.21-1.2.67-1.47,2.58-2.93,5.16-4.41,7.73-.3.52-.24.95.06,1.46,1.61,2.73,3.19,5.48,4.78,8.23.02.03.04.06.06.09.52.76.54,1.42,0,2.28-1.64,2.63-3.13,5.34-4.7,8.01-.36.61-.35,1.13.02,1.76,1.11,1.86,2.16,3.75,3.19,5.65.42.77.91,1.24,1.85,1.39,2.09.33,3.21,1.93,2.87,3.88-.21,1.21-1.45,2.37-2.69,2.52-1.41.17-2.76-.57-3.36-1.82-.4-.84-.5-1.68-.08-2.53.42-.85.26-1.57-.25-2.35-.72-1.11-1.33-2.29-1.96-3.46-.4-.74-.93-1.08-1.83-1.07-3.03.05-6.05.01-9.08,0-.84,0-1.68.07-2.51.15-1.58.15-2.99-.87-3.34-2.38-.39-1.64.39-3.2,1.89-3.82.37-.15.76-.16,1.16-.15,3.83.07,7.65.15,11.48.22.28,0,.56-.03.84-.05.57-.05.95-.35,1.23-.84,1-1.77,2.02-3.53,3.05-5.28.39-.67.39-1.27,0-1.94-1.57-2.63-3.11-5.27-4.66-7.91-.09-.16-.18-.33-.28-.49-.37-.58-.35-1.13.02-1.73.93-1.53,1.84-3.08,2.74-4.62.74-1.27,1.46-2.56,2.21-3.83.29-.5.3-.99.01-1.48-1.03-1.8-2.07-3.59-3.1-5.39-.24-.42-.54-.66-1.06-.69-1.23-.07-2.21-.59-2.83-1.72-.31-.56-.84-.83-1.5-.8-1.21.05-2.42.08-3.64.02-.71-.04-1.25.28-1.61.92-1.59,2.83-3.2,5.65-4.78,8.48-.36.63-.65,1.3-.92,1.98-.87,2.25-3.77,2.74-5.36.9-1.04-1.21-1.22-2.44-.32-3.75,2.21-3.2,3.96-6.67,6.03-9.96.63-.99.66-1.83.02-2.83-.95-1.45-1.77-2.98-2.65-4.48-.12-.21-.25-.41-.38-.62-.37-.59-.86-.89-1.61-.87-2.61.05-5.23.04-7.85,0-1.15-.01-1.91.38-2.45,1.46-.91,1.8-1.94,3.53-2.96,5.27-.42.72-.49,1.35-.08,2.13.9,1.72.17,3.36-1.39,4.19-1.39.74-3.08.5-4.17-1.14-.94-1.41-.6-3.27.76-4.3.57-.43,1.26-.58,1.94-.67.53-.07.84-.32,1.08-.76.88-1.56,1.77-3.11,2.65-4.67.36-.63.77-1.23,1.07-1.9.17-.39.15-.75-.06-1.12-1.45-2.53-2.91-5.04-4.32-7.59-.45-.81-1.09-1.14-1.97-1.08-2.24.17-4.48.1-6.72.1-.63,0-1.06.19-1.44.75-1.37,1.99-3.91,2.02-5.27.1-.96-1.35-.63-3.3.72-4.36,1.33-1.04,3.24-.9,4.26.44.73.96,1.62,1.21,2.74,1.11,2.54-.23,5.08,0,7.62-.1.35-.01.54.18.72.44,1.09,1.59,1.95,3.31,2.94,4.96.8,1.35,1.58,2.71,2.35,4.08.28.49.69.72,1.23.72,3.03,0,6.05,0,9.08,0,.46,0,.79-.23,1.01-.6,1.09-1.87,2.17-3.75,3.26-5.62.19-.33.19-.66.02-1.01-.23-.5-.5-1-.56-1.57-.07-.74.16-1.4.52-2.02.25-.43.25-.83,0-1.26-.71-1.21-1.4-2.42-2.09-3.64-.24-.42-.58-.59-1.06-.58-1.91.01-3.81,0-5.72,0h0Zm35.26-22.5c-1.51,0-3.03.02-4.54,0-.61-.01-1.04.2-1.34.73-1.02,1.8-2.04,3.6-3.09,5.39-.33.56-.46,1.08-.07,1.66.13.2.19.44.27.67.68,2.23-1.38,4.51-3.68,4.09-.99-.18-1.69-.76-2.19-1.6-.28-.47-.65-.65-1.2-.64-2.13.02-4.26.04-6.39,0-.68-.01-1.08.24-1.4.8-1.41,2.52-2.83,5.05-4.26,7.55-.33.57-.33,1.05,0,1.61,1.08,1.81,2.15,3.63,3.2,5.46.3.52.71.75,1.31.78,1.29.06,2.51,1.12,2.8,2.38.48,2.03-.86,3.84-3.1,4.12-.53.07-.85.28-1.1.72-.98,1.72-1.96,3.44-2.97,5.14-.4.68-.33,1.28.05,1.93,1.46,2.48,2.91,4.96,4.32,7.46.31.56.72.75,1.3.75,2.15,0,4.3,0,6.44,0,.58,0,1.01-.19,1.36-.7.88-1.28,2.56-1.67,4.06-1,1.34.61,2.08,2.1,1.73,3.58-.1.41-.27.81-.44,1.21-.15.34-.12.63.07.95,1.09,1.83,2.16,3.66,3.23,5.5.2.35.47.57.89.58.32.01.63.06.95.06,2.75,0,5.49,0,8.24.02.56,0,.92-.18,1.19-.64.99-1.69,1.97-3.39,2.99-5.06.42-.69.48-1.3.08-2.03-.93-1.68.29-3.5,1.52-4.19,1.02-.57,3.33-.49,4.18,1.03.23.42.57.6,1.04.62,2.35.12,4.71.03,7.06.06.38,0,.62-.23.8-.54,1.13-1.97,2.26-3.95,3.4-5.92.24-.41.22-.81-.01-1.22-.57-.99-1.11-1.99-1.68-2.97-1.45-2.5-2.79-5.07-4.54-7.39-.34-.45-.52-.99-.55-1.56-.08-1.51,1.03-2.97,2.53-3.35,1.6-.4,3.19.28,3.82,1.78.53,1.27,1.19,2.44,1.87,3.62,1.26,2.18,2.62,4.3,3.76,6.55.26.52.66.74,1.26.72,1.42-.04,2.84-.03,4.26,0,.46,0,.77-.13,1.01-.53.59-.99,1.5-1.48,2.65-1.49.54,0,.92-.24,1.18-.7,1.08-1.86,2.15-3.71,3.25-5.56.33-.56.33-1.04,0-1.61-1.48-2.51-2.94-5.03-4.36-7.57-.36-.64-.8-.88-1.52-.86-1.92.05-3.85.06-5.77.03-.72-.01-1.24.08-1.68.78-1.13,1.82-3.22,1.73-4.43.99-1.57-.95-2.03-2.8-1.12-4.44.2-.35.22-.64.02-.99-.62-1.11-1.25-2.21-1.83-3.34-.3-.58-.7-.86-1.35-.9-1.11-.07-2.11-.43-2.65-1.49-.34-.65-.81-.86-1.53-.85-2.47.04-4.93.01-7.4.03-.58,0-1-.17-1.26-.72-.22-.45-.48-.88-.74-1.32-1.43-2.47-2.87-4.94-4.28-7.42-.31-.55-.69-.77-1.34-.75-1.44.05-2.88.02-4.31.02Zm75.33,18.26c.49.05.76-.22.9-.65.25-.76.48-1.53.74-2.29.7-2.09,1.4-4.17,2.11-6.25.15-.43.09-.74-.3-1.01-1.14-.81-2.28-1.63-3.41-2.44-1.29-.93-2.58-1.85-3.86-2.78-.49-.36-.93-.34-1.4.08-.53.47-1.12.87-1.69,1.28-1.78,1.3-3.56,2.59-5.34,3.88-.3.22-.53.44-.38.88.76,2.14,1.49,4.3,2.23,6.45.1.28.28.51.56.58,1.02.24,1.69.9,2.23,1.74.2.32.49.47.89.46,2.24-.09,4.47-.02,6.71.06Zm-128.15-24.44s0,0,0,0c-2.32,0-4.63-.01-6.95,0-.89,0-1.28.5-1.16,1.38.03.21.14.38.25.56,1.37,2.25,2.65,4.54,3.95,6.83.93,1.64,1.87,3.27,2.83,4.89.49.83,1.38.87,1.97.11.23-.29.42-.62.6-.94.84-1.45,1.66-2.92,2.5-4.37,1.26-2.18,2.55-4.34,3.79-6.53.64-1.14.14-1.93-1.17-1.94-2.2-.01-4.41,0-6.61,0Zm4.28,14.48c.5-.05,1.02-.13,1.33-.69,1.47-2.58,2.93-5.16,4.44-7.71.4-.67.31-1.22-.06-1.82-.63-1.02-.87-1.05-1.43,0-1.62,3-3.35,5.94-5.08,8.89-.6,1.02-.43,1.28.81,1.33Zm-4.31-16.44h0c1.85,0,3.69,0,5.54.01.38,0,.63-.08.55-.54-.16-.94-.9-1.56-1.86-1.56-2.78,0-5.56.05-8.33-.01-1.01-.02-1.57.37-1.93,1.24-.27.65-.16.85.55.85,1.83,0,3.65,0,5.48,0Zm-4.17,16.37c.22-.02.58.06.78-.25.21-.32,0-.62-.16-.88-1.37-2.18-2.53-4.48-3.82-6.7-.51-.89-1-1.79-1.52-2.67-.28-.47-.49-.48-.87-.1-.67.66-.81,1.4-.35,2.21,1.43,2.53,2.88,5.05,4.31,7.58.35.61.89.81,1.64.81Zm22.53,10.14c-1.21,0-2.43-.01-3.64,0-.68.01-1.03.34-1.05.9-.03.88.18,1.16.98,1.24.18.02.37.01.56.01,2.03,0,4.07,0,6.1,0q1.16,0,1.19-1.13c0-.07.03-.15.03-.22.07-.67-.04-.81-.71-.81-1.16,0-2.31,0-3.47,0Zm6.87,40.15c.3.04.55-.14.74-.46,1.2-2.06,2.39-4.13,3.58-6.19.11-.19.19-.39.02-.62-.67-.91-1.64-.88-2.21.07-.14.22-.26.45-.39.68-.93,1.64-1.85,3.28-2.78,4.91-.45.8.02,1.6,1.04,1.61Zm74.49-6.02c-.02-.5-.52-.62-.89-.81-.56-.29-.78-.2-1.09.34-1.13,1.97-2.27,3.94-3.41,5.91q-.51.89.35,1.47c.09.06.19.12.27.2.34.3.6.2.82-.15.09-.14.18-.28.27-.43,1.09-1.93,2.18-3.86,3.36-5.74.14-.22.27-.44.33-.78Zm-52.49-54.95c-.04-.09-.09-.21-.16-.32-1.13-1.71-2.08-3.53-3.1-5.31-.68-1.18-.8-1.2-1.9-.42-.41.29-.52.59-.25,1.03.46.75.92,1.49,1.35,2.25.65,1.13,1.28,2.27,1.93,3.4.15.27.37.52.72.35.5-.24,1.13-.3,1.41-.9,0-.02,0-.04,0-.09Zm15.55,70.91c.31-.02.53-.15.76-.28q.72-.43.32-1.14c-1.03-1.79-2.07-3.58-3.1-5.37-.68-1.19-.67-1.17-1.83-.44-.42.27-.45.51-.2.9.51.82,1,1.65,1.49,2.49.6,1.05,1.18,2.11,1.79,3.16.18.32.38.66.79.68Zm-26.59,23.19c1.14,0,2.27,0,3.41,0,.3,0,.6-.06.64-.4.15-1.24-.03-1.73-1.3-1.64-.69.05-1.38.06-2.07.05-1.27,0-2.53,0-3.8-.06-.71-.03-1.06.37-1.05,1.02.01.73.32,1.03,1.08,1.03,1.03,0,2.05,0,3.08,0Zm132.96-64.06c.49-.08.99-.28,1.29-.73.25-.37-.13-.65-.3-.94-.98-1.69-1.99-3.37-2.95-5.07-.72-1.27-.7-1.27-1.94-.51-.33.2-.38.39-.18.72.43.7.84,1.41,1.24,2.12.72,1.28,1.42,2.58,2.14,3.86.14.25.29.53.7.54Zm-86.53,10.76c-.03-.05-.06-.13-.11-.21-1.16-1.98-2.31-3.97-3.47-5.94-.38-.64-.62-.65-1.44-.16-.63.38-.69.58-.28,1.21,1.07,1.66,2.04,3.39,3,5.12.75,1.35.68,1.12,1.77.47.11-.07.23-.12.34-.19.1-.06.18-.13.2-.3Zm49.11-.72c.31-.04.47-.31.62-.56,1.19-1.98,2.37-3.96,3.56-5.94.19-.32.08-.46-.24-.57-.28-.09-.58-.18-.82-.35-.44-.32-.66-.18-.9.26-1.05,1.89-2.06,3.8-3.18,5.64-.4.66.14,1.5.96,1.52Zm57.32-40.29c-.06-.12-.15-.3-.25-.48-.96-1.72-1.95-3.43-2.89-5.17-.58-1.07-.68-1.11-1.7-.45-.05.03-.09.06-.14.09-.34.2-.41.48-.2.8,1.27,1.89,2.24,3.95,3.38,5.91.07.13.17.26.29.33.19.12,1.52-.75,1.51-1.05Zm-71.95,39.35c-.02-.06-.05-.17-.11-.26-1.12-1.93-2.24-3.87-3.38-5.79-.4-.67-.58-.64-1.53-.05-.52.32-.3.7-.08,1.05,1.04,1.7,2.02,3.43,3.01,5.17.71,1.25.68,1.06,1.86.35.15-.09.25-.23.23-.46Z"/>
</svg>